# xmcd
#
# Track frame offsets:
#	150
#	16320
#	33133
#	49314
#	71297
#	89694
#	110002
#	129631
#	142795
#	161361
#	185837
#	199760
#	215957
#	218367
#	237476
#
# Disc length: 3379 seconds
#
# Revision: 1
# Processed by: cddbd v1.5.2PL0 Copyright (c) Steve Scherf et al.
# Submitted via: audiograbber 1.83.01
#
DISCID=da0d310f
DTITLE=Con Hunley - Sweet Memories
DYEAR=2003
DGENRE=Country
TTITLE0=Over Getting Over You
TTITLE1=A Chance
TTITLE2=She Ain't You
TTITLE3=Since I Fell For You
TTITLE4=She Thinks I Still Care
TTITLE5=That's All That Matters To Me
TTITLE6=Don't Touch Me
TTITLE7=Something You Got
TTITLE8=Still
TTITLE9=If You Ever Have Forever In Mind
TTITLE10=Only Time Will Tell
TTITLE11=No Relief In Sight
TTITLE12=Dedication To Mother
TTITLE13=Sweet Memories
TTITLE14=Amazing Grace
EXTD=
EXTT0=
EXTT1=
EXTT2=
EXTT3=
EXTT4=
EXTT5=
EXTT6=
EXTT7=
EXTT8=
EXTT9=
EXTT10=
EXTT11=
EXTT12=
EXTT13=
EXTT14=
PLAYORDER=
